Coordinates
version=1
nRows=12
nColumns=24
inDegrees=yes

Units are S.I. units (second, meters, Newtons, ...)
Angles are in degrees.

endheader
time	pelvis_tilt	pelvis_list	pelvis_rotation	pelvis_tx	pelvis_ty	pelvis_tz	hip_flexion_r	hip_adduction_r	hip_rotation_r	knee_angle_r	ankle_angle_r	subtalar_angle_r	mtp_angle_r	hip_flexion_l	hip_adduction_l	hip_rotation_l	knee_angle_l	ankle_angle_l	subtalar_angle_l	mtp_angle_l	lumbar_extension	lumbar_bending	lumbar_rotation
      5.52000000	      8.06063907	      3.24449741	      5.67417175	      1.39218262	      0.92163189	     -0.19666421	     11.51770998	     -2.10881701	    -11.74190676	     -0.72413028	      7.66739167	      7.48079137	      0.00000000	    -25.74404991	      3.47906555	      9.71668694	     -8.68761072	     13.72070135	     -1.83594183	      0.00000000	    -26.94299595	     -3.58345798	    -10.07351704
      5.53000000	      8.02006407	      2.77914120	      5.71290098	      1.40662541	      0.92146028	     -0.19559461	     11.12042961	     -1.51794026	    -11.85079618	     -1.19713246	      6.20021591	      6.19356731	      0.00000000	    -25.47726814	      2.91650192	      8.90188789	    -10.63217075	     13.26039995	     -0.95170484	      0.00000000	    -26.58914390	     -3.18612382	     -9.60692390
      5.54000000	      7.97951469	      2.19475523	      5.68440146	      1.42123505	      0.92153100	     -0.19441013	     10.65095580	     -0.76624143	    -11.55713035	     -1.59849244	      4.42998411	      4.47436984	      0.00000000	    -25.07062045	      2.25606330	      7.84747727	    -12.78101624	     12.45582083	     -0.17017201	      0.00000000	    -26.18220799	     -2.66804807	     -9.11635680
      5.55000000	      7.96297506	      1.50554543	      5.60708490	      1.43586308	      0.92191800	     -0.19309158	     10.10740395	      0.13193638	    -10.94407975	     -1.93132002	      2.59801689	      2.51832392	      0.00000000	    -24.55469269	      1.48399137	      6.75985281	    -15.11184109	     11.30312247	      0.55221011	      0.00000000	    -25.79016803	     -2.04979095	     -8.54628681
      5.56000000	      7.99336679	      0.74814109	      5.45276192	      1.45039900	      0.92267100	     -0.19170304	      9.45476232	      1.13567574	     -9.85386150	     -2.16883192	      0.88745822	      0.33841776	      0.00000000	    -23.95466636	      0.65700317	      5.67457893	    -17.60338311	      9.68132331	      1.07694114	      0.00000000	    -25.47017050	     -1.36044390	     -7.86967304
      5.57000000	      8.07054363	     -0.04383269	      5.26594159	      1.46481007	      0.92380743	     -0.19023950	      8.71561452	      2.19730818	     -8.56830408	     -2.37104572	     -0.39932009	     -1.67154930	      0.00000000	    -23.23115771	     -0.23456367	      4.51578762	    -20.30562945	      7.65531747	      1.64087739	      0.00000000	    -25.22326768	     -0.62859912	     -7.25247296
      5.58000000	      8.17876054	     -0.84090582	      5.00594105	      1.47890729	      0.92524824	     -0.18868661	      7.97157484	      3.27450340	     -7.26557118	     -2.65182309	     -1.06028824	     -3.22740691	      0.00000000	    -22.34152655	     -1.14813777	      3.27545352	    -23.24381737	      5.30285863	      2.26213756	      0.00000000	    -25.08054449	      0.09527785	     -6.60786845
      5.59000000	      8.28841724	     -1.59808535	      4.70595687	      1.49277794	      0.92692117	     -0.18724239	      7.14457808	      4.30220229	     -5.67073476	     -2.83629262	     -1.35222776	     -4.72321056	      0.00000000	    -21.32335563	     -1.98955104	      2.31888492	    -26.29254631	      2.53628061	      2.55570648	      0.00000000	    -24.97396567	      0.80038725	     -6.01546061
      5.60000000	      8.36896395	     -2.29634986	      4.43761731	      1.50620882	      0.92870497	     -0.18594623	      6.34441800	      5.23794447	     -4.28281511	     -3.03210105	     -1.19941478	     -5.76869143	      0.00000000	    -20.06548419	     -2.76323536	      1.63408241	    -29.55291910	     -0.42577288	      2.69529579	      0.00000000	    -24.91831405	      1.47098747	     -5.51829988
      5.61000000	      8.39497077	     -2.96446020	      4.25089723	      1.51917581	      0.93042491	     -0.18488339	      5.60891974	      6.09885690	     -3.24658057	     -3.23584657	     -0.66335393	     -6.30381371	      0.00000000	    -18.51765540	     -3.49129771	      1.24499425	    -33.04362059	     -3.42313065	      2.62612573	      0.00000000	    -24.86827934	      2.15527216	     -5.12944993
      5.62000000	      8.31284159	     -3.62423944	      4.15977745	      1.53171838	      0.93188783	     -0.18402497	      4.96897060	      6.90891557	     -2.53677309	     -3.37015814	      0.05935272	     -6.47877290	      0.00000000	    -16.62282183	     -4.18734311	      1.12887096	    -36.74815491	     -6.33603350	      2.35480928	      0.00000000	    -24.74619525	      2.86561503	     -4.85121962
      5.63000000	      8.08604989	     -4.30672908	      4.19900800	      1.54387722	      0.93293927	     -0.18344235	      4.46918635	      7.69558782	     -2.20989019	     -3.42522665	      0.91341123	     -6.30587874	      0.00000000	    -14.35457639	     -4.86588479	      1.29572398	    -40.61801373	     -9.08212507	      1.77247344	      0.00000000	    -24.48807145	      3.64900096	     -4.65907967
